<mxfile host="app.diagrams.net" modified="2021-11-23T18:54:44.728Z" agent="5.0 (Windows NT 10.0; Win64; x64) AppleWebKit/537.36 (KHTML, like Gecko) Chrome/96.0.4664.45 Safari/537.36" etag="0lgcSPZXMwlRUTQiA8ea" version="15.7.2" type="github">
  <diagram id="_2Zt2UluWWl2sxyEjNhr" name="Page-1">
    <mxGraphModel dx="868" dy="393" grid="1" gridSize="10" guides="1" tooltips="1" connect="1" arrows="1" fold="1" page="1" pageScale="1" pageWidth="827" pageHeight="1169" math="0" shadow="0">
      <root>
        <mxCell id="0" />
        <mxCell id="1" parent="0" />
        <object label="Region" id="vE6ESvZn7HaGInk55aeK-2">
          <mxCell style="points=[[0,0],[0.25,0],[0.5,0],[0.75,0],[1,0],[1,0.25],[1,0.5],[1,0.75],[1,1],[0.75,1],[0.5,1],[0.25,1],[0,1],[0,0.75],[0,0.5],[0,0.25]];outlineConnect=0;gradientColor=none;html=1;whiteSpace=wrap;fontSize=12;fontStyle=0;shape=mxgraph.aws4.group;grIcon=mxgraph.aws4.group_region;strokeColor=#147EBA;fillColor=none;verticalAlign=top;align=left;spacingLeft=30;fontColor=#147EBA;dashed=1;" parent="1" vertex="1">
            <mxGeometry x="10" y="40" width="810" height="510" as="geometry" />
          </mxCell>
        </object>
        <object label="A.Z.1" id="PGjBq-9Oce2ONohRSMD0-1">
          <mxCell style="fillColor=none;strokeColor=#147EBA;dashed=1;verticalAlign=top;fontStyle=0;fontColor=#147EBA;" parent="1" vertex="1">
            <mxGeometry x="80" y="155" width="320" height="340" as="geometry" />
          </mxCell>
        </object>
        <mxCell id="PGjBq-9Oce2ONohRSMD0-2" value="A.Z.2" style="fillColor=none;strokeColor=#147EBA;dashed=1;verticalAlign=top;fontStyle=0;fontColor=#147EBA;" parent="1" vertex="1">
          <mxGeometry x="460" y="160" width="285" height="330" as="geometry" />
        </mxCell>
        <mxCell id="PGjBq-9Oce2ONohRSMD0-17" value="" style="edgeStyle=orthogonalEdgeStyle;rounded=0;orthogonalLoop=1;jettySize=auto;html=1;" parent="1" source="PGjBq-9Oce2ONohRSMD0-3" target="PGjBq-9Oce2ONohRSMD0-4" edge="1">
          <mxGeometry relative="1" as="geometry" />
        </mxCell>
        <mxCell id="PGjBq-9Oce2ONohRSMD0-29" value="" style="edgeStyle=orthogonalEdgeStyle;rounded=0;orthogonalLoop=1;jettySize=auto;html=1;" parent="1" source="PGjBq-9Oce2ONohRSMD0-3" target="PGjBq-9Oce2ONohRSMD0-2" edge="1">
          <mxGeometry relative="1" as="geometry" />
        </mxCell>
        <mxCell id="PGjBq-9Oce2ONohRSMD0-3" value="ELB" style="verticalLabelPosition=bottom;html=1;verticalAlign=top;strokeWidth=1;align=center;outlineConnect=0;dashed=0;outlineConnect=0;shape=mxgraph.aws3d.elasticLoadBalancing;fillColor=#ECECEC;strokeColor=#5E5E5E;aspect=fixed;" parent="1" vertex="1">
          <mxGeometry x="430" y="120" width="31.31" height="30" as="geometry" />
        </mxCell>
        <mxCell id="PGjBq-9Oce2ONohRSMD0-4" value="Public subnet" style="points=[[0,0],[0.25,0],[0.5,0],[0.75,0],[1,0],[1,0.25],[1,0.5],[1,0.75],[1,1],[0.75,1],[0.5,1],[0.25,1],[0,1],[0,0.75],[0,0.5],[0,0.25]];outlineConnect=0;gradientColor=none;html=1;whiteSpace=wrap;fontSize=12;fontStyle=0;shape=mxgraph.aws4.group;grIcon=mxgraph.aws4.group_security_group;grStroke=0;strokeColor=#248814;fillColor=#E9F3E6;verticalAlign=top;align=left;spacingLeft=30;fontColor=#248814;dashed=0;" parent="1" vertex="1">
          <mxGeometry x="90" y="189.13" width="310" height="100" as="geometry" />
        </mxCell>
        <mxCell id="PGjBq-9Oce2ONohRSMD0-5" value="Public subnet" style="points=[[0,0],[0.25,0],[0.5,0],[0.75,0],[1,0],[1,0.25],[1,0.5],[1,0.75],[1,1],[0.75,1],[0.5,1],[0.25,1],[0,1],[0,0.75],[0,0.5],[0,0.25]];outlineConnect=0;gradientColor=none;html=1;whiteSpace=wrap;fontSize=12;fontStyle=0;shape=mxgraph.aws4.group;grIcon=mxgraph.aws4.group_security_group;grStroke=0;strokeColor=#248814;fillColor=#E9F3E6;verticalAlign=top;align=left;spacingLeft=30;fontColor=#248814;dashed=0;" parent="1" vertex="1">
          <mxGeometry x="487.5" y="189.13" width="230" height="100" as="geometry" />
        </mxCell>
        <mxCell id="PGjBq-9Oce2ONohRSMD0-19" value="" style="edgeStyle=orthogonalEdgeStyle;rounded=0;orthogonalLoop=1;jettySize=auto;html=1;" parent="1" source="PGjBq-9Oce2ONohRSMD0-6" target="PGjBq-9Oce2ONohRSMD0-12" edge="1">
          <mxGeometry relative="1" as="geometry" />
        </mxCell>
        <mxCell id="PGjBq-9Oce2ONohRSMD0-6" value="Private subnet" style="points=[[0,0],[0.25,0],[0.5,0],[0.75,0],[1,0],[1,0.25],[1,0.5],[1,0.75],[1,1],[0.75,1],[0.5,1],[0.25,1],[0,1],[0,0.75],[0,0.5],[0,0.25]];outlineConnect=0;gradientColor=none;html=1;whiteSpace=wrap;fontSize=12;fontStyle=0;shape=mxgraph.aws4.group;grIcon=mxgraph.aws4.group_security_group;grStroke=0;strokeColor=#147EBA;fillColor=#E6F2F8;verticalAlign=top;align=left;spacingLeft=30;fontColor=#147EBA;dashed=0;" parent="1" vertex="1">
          <mxGeometry x="100" y="330" width="310" height="110" as="geometry" />
        </mxCell>
        <mxCell id="PGjBq-9Oce2ONohRSMD0-7" value="Private subnet" style="points=[[0,0],[0.25,0],[0.5,0],[0.75,0],[1,0],[1,0.25],[1,0.5],[1,0.75],[1,1],[0.75,1],[0.5,1],[0.25,1],[0,1],[0,0.75],[0,0.5],[0,0.25]];outlineConnect=0;gradientColor=none;html=1;whiteSpace=wrap;fontSize=12;fontStyle=0;shape=mxgraph.aws4.group;grIcon=mxgraph.aws4.group_security_group;grStroke=0;strokeColor=#147EBA;fillColor=#E6F2F8;verticalAlign=top;align=left;spacingLeft=30;fontColor=#147EBA;dashed=0;" parent="1" vertex="1">
          <mxGeometry x="470" y="330" width="260" height="110" as="geometry" />
        </mxCell>
        <mxCell id="PGjBq-9Oce2ONohRSMD0-30" value="" style="edgeStyle=orthogonalEdgeStyle;rounded=0;orthogonalLoop=1;jettySize=auto;html=1;" parent="1" source="PGjBq-9Oce2ONohRSMD0-8" target="PGjBq-9Oce2ONohRSMD0-7" edge="1">
          <mxGeometry relative="1" as="geometry" />
        </mxCell>
        <mxCell id="PGjBq-9Oce2ONohRSMD0-31" value="" style="edgeStyle=orthogonalEdgeStyle;rounded=0;orthogonalLoop=1;jettySize=auto;html=1;" parent="1" source="PGjBq-9Oce2ONohRSMD0-8" target="PGjBq-9Oce2ONohRSMD0-7" edge="1">
          <mxGeometry relative="1" as="geometry" />
        </mxCell>
        <mxCell id="PGjBq-9Oce2ONohRSMD0-32" value="" style="edgeStyle=orthogonalEdgeStyle;rounded=0;orthogonalLoop=1;jettySize=auto;html=1;" parent="1" source="PGjBq-9Oce2ONohRSMD0-8" target="PGjBq-9Oce2ONohRSMD0-7" edge="1">
          <mxGeometry relative="1" as="geometry" />
        </mxCell>
        <mxCell id="PGjBq-9Oce2ONohRSMD0-33" value="" style="edgeStyle=orthogonalEdgeStyle;rounded=0;orthogonalLoop=1;jettySize=auto;html=1;" parent="1" source="PGjBq-9Oce2ONohRSMD0-8" target="PGjBq-9Oce2ONohRSMD0-6" edge="1">
          <mxGeometry relative="1" as="geometry" />
        </mxCell>
        <mxCell id="PGjBq-9Oce2ONohRSMD0-8" value="" style="html=1;strokeWidth=1;shadow=0;dashed=0;shape=mxgraph.ios7.misc.vpn;fillColor=#007AFF;strokeColor=none;buttonText=;strokeColor2=#222222;fontColor=#222222;fontSize=8;verticalLabelPosition=bottom;verticalAlign=top;align=center;" parent="1" vertex="1">
          <mxGeometry x="389" y="289.13" width="90" height="30" as="geometry" />
        </mxCell>
        <mxCell id="PGjBq-9Oce2ONohRSMD0-9" value="Security group" style="fillColor=none;strokeColor=#DD3522;verticalAlign=top;fontStyle=0;fontColor=#DD3522;" parent="1" vertex="1">
          <mxGeometry x="170" y="224.13" width="110" height="30" as="geometry" />
        </mxCell>
        <mxCell id="PGjBq-9Oce2ONohRSMD0-10" value="Security group" style="fillColor=none;strokeColor=#DD3522;verticalAlign=top;fontStyle=0;fontColor=#DD3522;" parent="1" vertex="1">
          <mxGeometry x="530" y="220" width="110" height="30" as="geometry" />
        </mxCell>
        <mxCell id="PGjBq-9Oce2ONohRSMD0-11" value="Security group" style="fillColor=none;strokeColor=#DD3522;verticalAlign=top;fontStyle=0;fontColor=#DD3522;" parent="1" vertex="1">
          <mxGeometry x="150" y="380" width="110" height="30" as="geometry" />
        </mxCell>
        <mxCell id="PGjBq-9Oce2ONohRSMD0-20" value="" style="edgeStyle=orthogonalEdgeStyle;rounded=0;orthogonalLoop=1;jettySize=auto;html=1;" parent="1" source="PGjBq-9Oce2ONohRSMD0-12" target="PGjBq-9Oce2ONohRSMD0-6" edge="1">
          <mxGeometry relative="1" as="geometry" />
        </mxCell>
        <mxCell id="PGjBq-9Oce2ONohRSMD0-12" value="Security group" style="fillColor=none;strokeColor=#DD3522;verticalAlign=top;fontStyle=0;fontColor=#DD3522;" parent="1" vertex="1">
          <mxGeometry x="510" y="380" width="110" height="30" as="geometry" />
        </mxCell>
        <mxCell id="PGjBq-9Oce2ONohRSMD0-27" value="" style="edgeStyle=orthogonalEdgeStyle;rounded=0;orthogonalLoop=1;jettySize=auto;html=1;" parent="1" source="PGjBq-9Oce2ONohRSMD0-13" target="PGjBq-9Oce2ONohRSMD0-3" edge="1">
          <mxGeometry relative="1" as="geometry" />
        </mxCell>
        <mxCell id="PGjBq-9Oce2ONohRSMD0-13" value="IGW" style="outlineConnect=0;dashed=0;verticalLabelPosition=bottom;verticalAlign=top;align=center;html=1;shape=mxgraph.aws3.internet_gateway;fillColor=#F58534;gradientColor=none;" parent="1" vertex="1">
          <mxGeometry x="410" y="30" width="69" height="60" as="geometry" />
        </mxCell>
        <mxCell id="PGjBq-9Oce2ONohRSMD0-15" value="" style="edgeStyle=orthogonalEdgeStyle;rounded=0;orthogonalLoop=1;jettySize=auto;html=1;" parent="1" source="PGjBq-9Oce2ONohRSMD0-14" target="PGjBq-9Oce2ONohRSMD0-13" edge="1">
          <mxGeometry relative="1" as="geometry" />
        </mxCell>
        <mxCell id="PGjBq-9Oce2ONohRSMD0-14" value="" style="points=[[0,0,0],[0.25,0,0],[0.5,0,0],[0.75,0,0],[1,0,0],[0,1,0],[0.25,1,0],[0.5,1,0],[0.75,1,0],[1,1,0],[0,0.25,0],[0,0.5,0],[0,0.75,0],[1,0.25,0],[1,0.5,0],[1,0.75,0]];outlineConnect=0;fontColor=#232F3E;gradientColor=#945DF2;gradientDirection=north;fillColor=#5A30B5;strokeColor=#ffffff;dashed=0;verticalLabelPosition=bottom;verticalAlign=top;align=center;html=1;fontSize=12;fontStyle=0;aspect=fixed;shape=mxgraph.aws4.resourceIcon;resIcon=mxgraph.aws4.route_53;" parent="1" vertex="1">
          <mxGeometry x="536" y="20" width="48" height="48" as="geometry" />
        </mxCell>
        <mxCell id="SyUqc8Cnyep-tpynHV66-2" style="edgeStyle=orthogonalEdgeStyle;rounded=0;orthogonalLoop=1;jettySize=auto;html=1;" edge="1" parent="1" source="PGjBq-9Oce2ONohRSMD0-21" target="vE6ESvZn7HaGInk55aeK-3">
          <mxGeometry relative="1" as="geometry" />
        </mxCell>
        <mxCell id="PGjBq-9Oce2ONohRSMD0-21" value="Amazon S3" style="outlineConnect=0;fontColor=#232F3E;gradientColor=none;strokeColor=#ffffff;fillColor=#232F3E;dashed=0;verticalLabelPosition=middle;verticalAlign=bottom;align=center;html=1;whiteSpace=wrap;fontSize=10;fontStyle=1;spacing=3;shape=mxgraph.aws4.productIcon;prIcon=mxgraph.aws4.s3;" parent="1" vertex="1">
          <mxGeometry x="830" y="120" width="70" height="60" as="geometry" />
        </mxCell>
        <mxCell id="SyUqc8Cnyep-tpynHV66-4" style="edgeStyle=orthogonalEdgeStyle;rounded=0;orthogonalLoop=1;jettySize=auto;html=1;entryX=0.575;entryY=0.144;entryDx=0;entryDy=0;entryPerimeter=0;" edge="1" parent="1" source="PGjBq-9Oce2ONohRSMD0-22" target="vE6ESvZn7HaGInk55aeK-3">
          <mxGeometry relative="1" as="geometry" />
        </mxCell>
        <mxCell id="PGjBq-9Oce2ONohRSMD0-22" value="SNS" style="outlineConnect=0;dashed=0;verticalLabelPosition=bottom;verticalAlign=top;align=center;html=1;shape=mxgraph.aws3.sns;fillColor=#D9A741;gradientColor=none;" parent="1" vertex="1">
          <mxGeometry x="890" y="9.75" width="56.5" height="58.25" as="geometry" />
        </mxCell>
        <mxCell id="SyUqc8Cnyep-tpynHV66-3" style="edgeStyle=orthogonalEdgeStyle;rounded=0;orthogonalLoop=1;jettySize=auto;html=1;" edge="1" parent="1" source="PGjBq-9Oce2ONohRSMD0-23" target="vE6ESvZn7HaGInk55aeK-3">
          <mxGeometry relative="1" as="geometry" />
        </mxCell>
        <mxCell id="PGjBq-9Oce2ONohRSMD0-23" value="CloudWatch" style="outlineConnect=0;dashed=0;verticalLabelPosition=bottom;verticalAlign=top;align=center;html=1;shape=mxgraph.aws3.cloudwatch;fillColor=#759C3E;gradientColor=none;" parent="1" vertex="1">
          <mxGeometry x="870" y="347" width="69.5" height="73" as="geometry" />
        </mxCell>
        <mxCell id="PGjBq-9Oce2ONohRSMD0-38" value="" style="edgeStyle=orthogonalEdgeStyle;rounded=0;orthogonalLoop=1;jettySize=auto;html=1;" parent="1" source="PGjBq-9Oce2ONohRSMD0-37" target="PGjBq-9Oce2ONohRSMD0-4" edge="1">
          <mxGeometry relative="1" as="geometry" />
        </mxCell>
        <mxCell id="PGjBq-9Oce2ONohRSMD0-39" value="" style="edgeStyle=orthogonalEdgeStyle;rounded=0;orthogonalLoop=1;jettySize=auto;html=1;" parent="1" source="PGjBq-9Oce2ONohRSMD0-37" target="PGjBq-9Oce2ONohRSMD0-10" edge="1">
          <mxGeometry relative="1" as="geometry" />
        </mxCell>
        <mxCell id="PGjBq-9Oce2ONohRSMD0-37" value="AutoScaling" style="outlineConnect=0;fontColor=#232F3E;gradientColor=none;fillColor=#D05C17;strokeColor=none;dashed=0;verticalLabelPosition=bottom;verticalAlign=top;align=center;html=1;fontSize=12;fontStyle=0;aspect=fixed;pointerEvents=1;shape=mxgraph.aws4.auto_scaling2;" parent="1" vertex="1">
          <mxGeometry x="405.5" y="189.13" width="60.87" height="60.87" as="geometry" />
        </mxCell>
        <mxCell id="PGjBq-9Oce2ONohRSMD0-40" value="" style="outlineConnect=0;dashed=0;verticalLabelPosition=bottom;verticalAlign=top;align=center;html=1;shape=mxgraph.aws3.ec2;fillColor=#F58534;gradientColor=none;" parent="1" vertex="1">
          <mxGeometry x="290" y="230" width="50" height="59.13" as="geometry" />
        </mxCell>
        <mxCell id="PGjBq-9Oce2ONohRSMD0-41" value="" style="outlineConnect=0;dashed=0;verticalLabelPosition=bottom;verticalAlign=top;align=center;html=1;shape=mxgraph.aws3.ec2;fillColor=#F58534;gradientColor=none;" parent="1" vertex="1">
          <mxGeometry x="660" y="196.13" width="56.5" height="63.87" as="geometry" />
        </mxCell>
        <mxCell id="vE6ESvZn7HaGInk55aeK-3" value="VPC" style="points=[[0,0],[0.25,0],[0.5,0],[0.75,0],[1,0],[1,0.25],[1,0.5],[1,0.75],[1,1],[0.75,1],[0.5,1],[0.25,1],[0,1],[0,0.75],[0,0.5],[0,0.25]];outlineConnect=0;gradientColor=none;html=1;whiteSpace=wrap;fontSize=12;fontStyle=0;shape=mxgraph.aws4.group;grIcon=mxgraph.aws4.group_vpc;strokeColor=#248814;fillColor=none;verticalAlign=top;align=left;spacingLeft=30;fontColor=#AAB7B8;dashed=0;" parent="1" vertex="1">
          <mxGeometry x="40" y="68" width="730" height="430" as="geometry" />
        </mxCell>
        <mxCell id="PGjBq-9Oce2ONohRSMD0-47" value="" style="edgeStyle=orthogonalEdgeStyle;rounded=0;orthogonalLoop=1;jettySize=auto;html=1;" parent="1" source="PGjBq-9Oce2ONohRSMD0-46" target="PGjBq-9Oce2ONohRSMD0-14" edge="1">
          <mxGeometry relative="1" as="geometry" />
        </mxCell>
        <mxCell id="PGjBq-9Oce2ONohRSMD0-46" value="" style="pointerEvents=1;shadow=0;dashed=0;html=1;strokeColor=none;fillColor=#505050;labelPosition=center;verticalLabelPosition=bottom;verticalAlign=top;outlineConnect=0;align=center;shape=mxgraph.office.users.administrator;" parent="1" vertex="1">
          <mxGeometry x="672" y="12" width="58" height="56" as="geometry" />
        </mxCell>
        <mxCell id="PGjBq-9Oce2ONohRSMD0-49" value="" style="outlineConnect=0;fontColor=#232F3E;gradientColor=none;fillColor=#3334B9;strokeColor=none;dashed=0;verticalLabelPosition=bottom;verticalAlign=top;align=center;html=1;fontSize=12;fontStyle=0;aspect=fixed;pointerEvents=1;shape=mxgraph.aws4.rds_instance;" parent="1" vertex="1">
          <mxGeometry x="276" y="356" width="78" height="78" as="geometry" />
        </mxCell>
        <mxCell id="PGjBq-9Oce2ONohRSMD0-55" value="" style="edgeStyle=orthogonalEdgeStyle;rounded=0;orthogonalLoop=1;jettySize=auto;html=1;" parent="1" source="PGjBq-9Oce2ONohRSMD0-51" edge="1">
          <mxGeometry relative="1" as="geometry">
            <mxPoint x="674" y="365" as="targetPoint" />
          </mxGeometry>
        </mxCell>
        <mxCell id="PGjBq-9Oce2ONohRSMD0-56" value="" style="edgeStyle=orthogonalEdgeStyle;rounded=0;orthogonalLoop=1;jettySize=auto;html=1;" parent="1" source="PGjBq-9Oce2ONohRSMD0-51" target="PGjBq-9Oce2ONohRSMD0-41" edge="1">
          <mxGeometry relative="1" as="geometry" />
        </mxCell>
        <mxCell id="PGjBq-9Oce2ONohRSMD0-51" value="NATgateway" style="aspect=fixed;html=1;points=[];align=center;image;fontSize=12;image=img/lib/azure2/networking/NAT.svg;" parent="1" vertex="1">
          <mxGeometry x="620" y="280" width="40" height="40" as="geometry" />
        </mxCell>
        <mxCell id="PGjBq-9Oce2ONohRSMD0-53" value="" style="edgeStyle=orthogonalEdgeStyle;rounded=0;orthogonalLoop=1;jettySize=auto;html=1;" parent="1" source="PGjBq-9Oce2ONohRSMD0-52" target="PGjBq-9Oce2ONohRSMD0-9" edge="1">
          <mxGeometry relative="1" as="geometry" />
        </mxCell>
        <mxCell id="PGjBq-9Oce2ONohRSMD0-54" value="" style="edgeStyle=orthogonalEdgeStyle;rounded=0;orthogonalLoop=1;jettySize=auto;html=1;" parent="1" source="PGjBq-9Oce2ONohRSMD0-52" target="PGjBq-9Oce2ONohRSMD0-11" edge="1">
          <mxGeometry relative="1" as="geometry" />
        </mxCell>
        <mxCell id="PGjBq-9Oce2ONohRSMD0-52" value="NATgateway" style="aspect=fixed;html=1;points=[];align=center;image;fontSize=12;image=img/lib/azure2/networking/NAT.svg;" parent="1" vertex="1">
          <mxGeometry x="170" y="270" width="50" height="50" as="geometry" />
        </mxCell>
        <mxCell id="SyUqc8Cnyep-tpynHV66-5" value="" style="sketch=0;outlineConnect=0;fontColor=#232F3E;gradientColor=none;fillColor=#2E27AD;strokeColor=none;dashed=0;verticalLabelPosition=bottom;verticalAlign=top;align=center;html=1;fontSize=12;fontStyle=0;aspect=fixed;pointerEvents=1;shape=mxgraph.aws4.aurora_instance;" vertex="1" parent="1">
          <mxGeometry x="630" y="370" width="78" height="78" as="geometry" />
        </mxCell>
      </root>
    </mxGraphModel>
  </diagram>
</mxfile>
